<?xml version="1.0" encoding="UTF-8"?><svg id="Layer_1" xmlns="http://www.w3.org/2000/svg" viewBox="0 0 20 20"><rect y=".25" width="20" height="19.5" rx="3.54" ry="3.54" style="fill:#008cad;"/><path d="M16.08,11.54c-.4-.43-1.16-.64-2.26-.64-.61,0-1.22,.06-1.82,.16-.39-.38-.74-.79-1.05-1.23-.24-.33-.46-.67-.66-1.02,.34-.95,.53-1.94,.58-2.95,0-.9-.36-1.87-1.36-1.87-.35,.01-.66,.2-.84,.5-.43,.73-.26,2.25,.43,3.79-.24,.71-.5,1.4-.81,2.16-.27,.65-.58,1.29-.92,1.91-1.02,.41-3.2,1.41-3.41,2.51-.06,.33,.05,.66,.3,.88,.25,.21,.56,.33,.89,.32,1.31,0,2.62-1.81,3.5-3.38,.5-.17,1.01-.32,1.52-.46,.56-.15,1.09-.27,1.6-.36,1.39,1.21,2.62,1.39,3.24,1.39,.85,0,1.17-.37,1.28-.68,.13-.36,.05-.75-.2-1.04Zm-.9,.64c-.05,.24-.3,.4-.64,.4-.1,0-.19-.01-.29-.04-.67-.17-1.29-.48-1.82-.92,.45-.07,.9-.1,1.35-.1,.3,0,.6,.02,.9,.07,.27,.06,.57,.2,.5,.6h0Zm-5.97-7.37c.06-.11,.17-.18,.29-.19,.32,0,.39,.38,.39,.7-.04,.76-.18,1.5-.42,2.22-.53-1.41-.46-2.4-.26-2.74Zm1.86,6.42c-.36,.08-.73,.16-1.11,.26-.27,.07-.55,.15-.82,.23,.15-.3,.28-.6,.4-.88,.15-.37,.3-.74,.43-1.11,.12,.18,.24,.36,.36,.53,.24,.33,.5,.65,.77,.95h-.03Zm-4.03,1.94c-.84,1.35-1.66,2.2-2.15,2.2-.08,0-.16-.02-.22-.08-.09-.07-.13-.19-.11-.31,.09-.48,1.05-1.18,2.47-1.82Z" style="fill:#fff;"/></svg>