<svg xmlns="http://www.w3.org/2000/svg" class="yxBNXG_spectrum-Icon yxBNXG_spectrum-Icon--sizeL" focusable="false" aria-hidden="true" role="img"><path d="M6,22.318V31a2,2,0,0,0,2,2H28a2,2,0,0,0,2-2h0V22.321l1,.994V31a3.00015,3.00015,0,0,1-2.82373,2.99491L28,34H8a3,3,0,0,1-3-3H5V23.312ZM23.38,2a2.47,2.47,0,0,1,1.76.73h0l5.12,5.1A2.52,2.52,0,0,1,31,9.6h0v2.485l-1,.994V9.6a1.50008,1.50008,0,0,0-.34032-.95008L29.56,8.54l-5.12-5.1A1.5,1.5,0,0,0,23.38,3H8A2,2,0,0,0,6,5H6v8.08l-1-.994V5A3.00016,3.00016,0,0,1,7.82373,2.0051L8,2Z" fill="var(--iconAcrobatScan, #19b3b8)"></path><path d="M23.38,3a1.5,1.5,0,0,1,1.06.44l5.12,5.1A1.5,1.5,0,0,1,30,9.6v3.479l-2.94045,2.92326a2.38577,2.38577,0,0,0,.00934,3.40457L30,22.321V31a2,2,0,0,1-2,2H8a2,2,0,0,1-2-2V22.318l2.93752-2.92038.14112-.154.0649-.07773A2.38551,2.38551,0,0,0,8.93065,15.994L6,13.08V5A2,2,0,0,1,8,3Z" fill="var(--iconAcrobatScan, #19b3b8)" opacity="0.1" style="isolation: isolate;"></path><path d="M2.41,12a.909.909,0,0,0-.64292.26646.8858.8858,0,0,0,.00148,1.26875l4.18923,4.16346L1.767,21.8647a.90005.90005,0,0,0,.64528,1.53385.888.888,0,0,0,.63913-.26464L7.88,18.33383l.08034-.08987A.88552.88552,0,0,0,7.88,17.06457l-4.829-4.8A.90737.90737,0,0,0,2.41,12Z" fill="var(--iconAcrobatScan, #19b3b8)"></path><path d="M33.58858,12a.90774.90774,0,0,0-.64143.265L28.117,17.06611a.88582.88582,0,0,0,.00157,1.26921l4.82883,4.80033a.90987.90987,0,0,0,1.28417-.0018.88582.88582,0,0,0,0-1.26766l-4.19074-4.166,4.19067-4.16645a.88583.88583,0,0,0-.00194-1.2692A.90737.90737,0,0,0,33.58858,12Z" fill="var(--iconAcrobatScan, #19b3b8)"></path><path d="M12.1974,21a1.33825,1.33825,0,0,1-.87759-.33146.99647.99647,0,0,1-.302-.9218c.165-.89159,1.58-1.946,3.884-2.89406a23.62826,23.62826,0,0,0,1.08783-2.317c.35594-.88062.65979-1.71181.95723-2.614-.7753-1.76711-.99045-3.57541-.5224-4.40542A1.01316,1.01316,0,0,1,17.27192,7c1.05688,0,1.43433,1.07007,1.43433,2.07189a12.6174,12.6174,0,0,1-.68131,3.50246,13.86729,13.86729,0,0,0,.79266,1.27208,10.60951,10.60951,0,0,0,1.27656,1.51686,13.58057,13.58057,0,0,1,2.14508-.19613,3.40186,3.40186,0,0,1,2.50292.7139A1.11632,1.11632,0,0,1,25,16.60517a1.05678,1.05678,0,0,1-.06232.36715c-.11966.32479-.44993.71233-1.3479.71312a5.56112,5.56112,0,0,1-3.69-1.65964c-.5945.10709-1.23994.25458-1.91974.43894-.61337.16749-1.21994.35734-1.80273.56328-.8172,1.49489-2.401,3.96923-3.93121,3.97Zm-.59034-1.13636a.34559.34559,0,0,0-.00529.07139.36164.36164,0,0,0,.35292.35969c.55751-.00039,1.47586-.96887,2.432-2.54338C12.76811,18.49976,11.71048,19.30036,11.60706,19.86364ZM22.74315,16.95a1.393,1.393,0,0,0,.32536.03923c.38312,0,.66319-.17809.7134-.45267.08379-.44482-.25894-.61545-.56053-.68056a8.27006,8.27006,0,0,0-2.54065.03295A5.3867,5.3867,0,0,0,22.74315,16.95Zm-5.56408-2.03071c-.16873.41972-.3718.872-.59186,1.31837.42087-.13729.83041-.25889,1.24146-.37029.52051-.14356,1.03611-.26791,1.5336-.36911l-.05435-.06472a12.002,12.002,0,0,1-.97761-1.22109c-.194-.27694-.379-.56014-.56128-.86728C17.60446,13.82721,17.41045,14.3442,17.17907,14.91925Zm-.23743-7.08767a4.68111,4.68111,0,0,0,.285,3.17963,10.96045,10.96045,0,0,0,.459-2.58536c0-.3648-.07549-.80491-.42539-.80609a.377.377,0,0,0-.2914.16122Z" fill="var(--iconAcrobatScan, #19b3b8)"></path><path d="M25.5,24a.5.5,0,0,1,0,1h-14a.5.5,0,0,1,0-1Z" fill="var(--iconAcrobatScan, #19b3b8)"></path><path d="M25.5,27a.5.5,0,0,1,0,1h-14a.5.5,0,0,1,0-1Z" fill="var(--iconAcrobatScan, #19b3b8)"></path></svg>