<svg xmlns="http://www.w3.org/2000/svg" class="yxBNXG_spectrum-Icon yxBNXG_spectrum-Icon--sizeL" focusable="false" aria-hidden="true" role="img"><path d="M23.38,3a1.5,1.5,0,0,1,1.06.44l5.12,5.1A1.5,1.5,0,0,1,30,9.6V31a2,2,0,0,1-2,2H8a2,2,0,0,1-2-2V5A2,2,0,0,1,8,3Zm0-1H8A3,3,0,0,0,5,5V31a3,3,0,0,0,3,3H28a3,3,0,0,0,3-3V9.6a2.52,2.52,0,0,0-.74-1.77l-5.12-5.1A2.47,2.47,0,0,0,23.38,2Z" fill="var(--iconRed, #d7373f)"></path><path d="M23.38,3a1.5,1.5,0,0,1,1.06.44l5.12,5.1A1.5,1.5,0,0,1,30,9.6V31a2,2,0,0,1-2,2H8a2,2,0,0,1-2-2V5A2,2,0,0,1,8,3Z" fill="var(--iconRed, #d7373f)" opacity="0.1" style="isolation: isolate;"></path><path d="M12.1974,21a1.33825,1.33825,0,0,1-.87759-.33146.99647.99647,0,0,1-.302-.9218c.165-.89159,1.58-1.946,3.884-2.89406a23.62826,23.62826,0,0,0,1.08783-2.317c.35594-.88062.65979-1.71181.95723-2.614-.7753-1.76711-.99045-3.57541-.5224-4.40542A1.01316,1.01316,0,0,1,17.27192,7c1.05688,0,1.43433,1.07007,1.43433,2.07189a12.6174,12.6174,0,0,1-.68131,3.50246,13.86729,13.86729,0,0,0,.79266,1.27208,10.60951,10.60951,0,0,0,1.27656,1.51686,13.58057,13.58057,0,0,1,2.14508-.19613,3.40186,3.40186,0,0,1,2.50292.7139A1.11632,1.11632,0,0,1,25,16.60517a1.05678,1.05678,0,0,1-.06232.36715c-.11966.32479-.44993.71233-1.3479.71312a5.56112,5.56112,0,0,1-3.69-1.65964c-.5945.10709-1.23994.25458-1.91974.43894-.61337.16749-1.21994.35734-1.80273.56328-.8172,1.49489-2.401,3.96923-3.93121,3.97Zm-.59034-1.13636a.34559.34559,0,0,0-.00529.07139.36164.36164,0,0,0,.35292.35969c.55751-.00039,1.47586-.96887,2.432-2.54338C12.76811,18.49976,11.71048,19.30036,11.60706,19.86364ZM22.74315,16.95a1.393,1.393,0,0,0,.32536.03923c.38312,0,.66319-.17809.7134-.45267.08379-.44482-.25894-.61545-.56053-.68056a8.27006,8.27006,0,0,0-2.54065.03295A5.3867,5.3867,0,0,0,22.74315,16.95Zm-5.56408-2.03071c-.16873.41972-.3718.872-.59186,1.31837.42087-.13729.83041-.25889,1.24146-.37029.52051-.14356,1.03611-.26791,1.5336-.36911l-.05435-.06472a12.002,12.002,0,0,1-.97761-1.22109c-.194-.27694-.379-.56014-.56128-.86728C17.60446,13.82721,17.41045,14.3442,17.17907,14.91925Zm-.23743-7.08767a4.68111,4.68111,0,0,0,.285,3.17963,10.96045,10.96045,0,0,0,.459-2.58536c0-.3648-.07549-.80491-.42539-.80609a.377.377,0,0,0-.2914.16122Z" fill="var(--iconRed, #d7373f)"></path><path d="M25.5,24a.5.5,0,0,1,0,1h-14a.5.5,0,0,1,0-1Z" fill="var(--iconRed, #d7373f)"></path><path d="M25.5,27a.5.5,0,0,1,0,1h-14a.5.5,0,0,1,0-1Z" fill="var(--iconRed, #d7373f)"></path></svg>