<svg xmlns="http://www.w3.org/2000/svg" class="yxBNXG_spectrum-Icon yxBNXG_spectrum-Icon--sizeL" focusable="false" aria-hidden="true" role="img"><path d="M19.12,23.06H18v-5h4A3,3,0,0,1,24.81,16H28V7.6a1.5,1.5,0,0,0-.44-1.06l-5.12-5.1A1.5,1.5,0,0,0,21.38,1H6A2,2,0,0,0,4,3V29a2,2,0,0,0,2,2H19.81Z" fill="var(--iconPurple, #864ccc)" opacity="0.1" style="isolation: isolate;"></path><path d="M24.94,18.47h-.56a.87007.87007,0,0,0-.32.06h.82Z" fill="var(--iconPurple, #864ccc)" opacity="0.1" style="isolation: isolate;"></path><path d="M19.81,31H6a2,2,0,0,1-2-2V3A2,2,0,0,1,6,1H21V6.5A1.54,1.54,0,0,0,22.5,8H28v8h1V8.1a2.87,2.87,0,0,0-.7-1.8L22.81.7a3.12,3.12,0,0,0-1.8-.7H6A3,3,0,0,0,3,3V29a3,3,0,0,0,3,3H19.9ZM22,1.42,27.49,7h-5a.47.47,0,0,1-.5-.5Z" fill="var(--iconPurple, #864ccc)"></path><path d="M30.03751,17.94991a1.04681,1.04681,0,0,1,1.034.866l.01422.12267-.05015.96163,4.40348.05-.05,1.14721-1.4985-.04566L32.7129,34.57913a.59822.59822,0,0,1-.47977.53211l-.099.01131H22.82162a.59883.59883,0,0,1-.56011-.44623l-.01705-.0976L21.17584,21.09745,19.49739,21.047l.06067-1.1268,4.41017.05-.00007-1.01452a1.04686,1.04686,0,0,1,.925-.97872l.12286-.007Zm-7.85267,2.99775-.05014.05431,1.12774,13.01924,8.41861.04568,1.18156-12.99516Zm7.85274-1.96981H24.95635L24.90635,20l5.13123.05.05-1.02219Z" fill="var(--iconPurple, #864ccc)"></path><polygon points="28 22.95 27 22.95 26.95 32 28 32.05 28.05 23 28 22.95" fill="var(--iconPurple, #864ccc)"></polygon><polygon points="25.091 22.92 23.996 23.015 24.743 32.135 25.893 32.085 25.146 22.965 25.091 22.92" fill="var(--iconPurple, #864ccc)"></polygon><polygon points="29.843 22.965 29.05 32.03 30.191 32.18 31.039 23.07 29.897 22.92 29.843 22.965" fill="var(--iconPurple, #864ccc)"></polygon></svg>