<svg xmlns="http://www.w3.org/2000/svg" class="yxBNXG_spectrum-Icon yxBNXG_spectrum-Icon--sizeL" focusable="false" aria-hidden="true" role="img"><path d="M15.91788,24.03072,9.00355,30.61349V24.03072H3.38193a2.60077,2.60077,0,0,1-1.70049-.695,2.64011,2.64011,0,0,1-.6902-1.74746V7.49567a2.63028,2.63028,0,0,1,.6902-1.74747,2.641,2.641,0,0,1,1.72049-.70494H24.548a2.39012,2.39012,0,0,1,1.75822.69447,2.35362,2.35362,0,0,1,.69248,1.748V17.99038a8.32273,8.32273,0,0,1,1.00029-.05957V7.4361a3.34279,3.34279,0,0,0-.98584-2.44973A3.3942,3.3942,0,0,0,24.548,4.00074H3.41194a3.39384,3.39384,0,0,0-2.439,1.00012A3.34268,3.34268,0,0,0,.001,7.4361V21.58824a3.6,3.6,0,0,0,1.00029,2.45241,3.56453,3.56453,0,0,0,2.40069.99288H8.00326v6.5927a.55377.55377,0,0,0,.157.39609.56339.56339,0,0,0,.39319.17009.5842.5842,0,0,0,.39011-.13924L16.3114,25.001h3.00087a5.83906,5.83906,0,0,1,.25666-.97026Z" fill="var(--iconYellow, #d2b200)"></path><path d="M26.99862,7.50333a2.44344,2.44344,0,0,0-.69225-1.79078,2.35866,2.35866,0,0,0-1.75762-.71146H3.40987A2.607,2.607,0,0,0,1.69,5.72328,2.73166,2.73166,0,0,0,1,7.5135v14.015a2.742,2.742,0,0,0,.69,1.79022,2.56734,2.56734,0,0,0,1.69991.712h5.6097v6.58277l6.91831-6.58277h3.63824a8.98753,8.98753,0,0,1,7.4425-6.04034Z" fill="var(--iconYellow, #d2b200)" opacity="0.1" style="isolation: isolate;"></path><path d="M6.5,12h16a.5.5,0,0,1,0,1H6.5a.5.5,0,0,1,0-1Z" fill="var(--iconYellow, #d2b200)" fill-rule="evenodd"></path><path d="M6.5,16h13a.5.5,0,0,1,0,1H6.5a.5.5,0,0,1,0-1Z" fill="var(--iconYellow, #d2b200)" fill-rule="evenodd"></path><path d="M28,19.5A7.5,7.5,0,1,1,20.5,27,7.5,7.5,0,0,1,28,19.5Zm.5,3.5h-1a.5.5,0,0,0-.5.5h0V26H24.5a.5.5,0,0,0-.5.5h0v1a.5.5,0,0,0,.5.5H27v2.5a.5.5,0,0,0,.5.5h1a.5.5,0,0,0,.5-.5h0V28h2.5a.5.5,0,0,0,.5-.5h0v-1a.5.5,0,0,0-.5-.5h0L29,25.999V23.5a.5.5,0,0,0-.5-.5Z" fill="var(--iconYellow, #d2b200)"></path></svg>