<svg xmlns="http://www.w3.org/2000/svg" class="yxBNXG_spectrum-Icon yxBNXG_spectrum-Icon--sizeL" focusable="false" aria-hidden="true" role="img"><path d="M18.61216,32.864c1.11671-.03419,3.33865-1.58959,3.78843-2.16678.0174.16692-.4684.95317-.26813,1.398a.92578.92578,0,0,0,.90506.49582A12.04949,12.04949,0,0,0,27.383,30.69719c-.02938.17111-.83956,1.02582-.74028,1.49156a.916.916,0,0,0,.50814.67522c1.447.72163,4.199-1.62344,4.74282-2.44849a.64323.64323,0,0,0-.17871-.889.63591.63591,0,0,0-.88248.1753,5.53969,5.53969,0,0,1-2.70183,1.75242c.068-.141.66152-1.12817.7341-1.24373a4.32656,4.32656,0,0,0,.31747-.50869.93676.93676,0,0,0,0-.89847c-.11894-.20034-.33576-.35618-.89581-.35618a7.36617,7.36617,0,0,0-2.52725,1.25465,13.75265,13.75265,0,0,1-1.97094,1.16657,12.1057,12.1057,0,0,1,.39468-1.22246c.32659-.6836.58153-1.22156.29679-1.68771a.80486.80486,0,0,0-.69147-.37608,2.2063,2.2063,0,0,0-1.889,1.5425,6.17241,6.17241,0,0,1-3.08183,2.14589,1.1741,1.1741,0,0,1-.58522,0,22.77185,22.77185,0,0,0,1.69155-1.76529c.50529-.64556,1.63033-2.26071,1.125-3.33782a1.26947,1.26947,0,0,0-1.23947-.70077c-1.01433.02966-2.186,1.25206-2.81836,2.44439a11.78085,11.78085,0,0,0-1.23115,3.5432c-.13734.2688-.0613.1235-1.31775.19615H4.50873L8.183,23.35524,26.792,3.61765a1.04525,1.04525,0,0,1,.747-.33385.91559.91559,0,0,1,.74734.29548l2.04891,2.06735A1.17805,1.17805,0,0,1,30.361,7.25382L12.01465,26.71012a.64362.64362,0,0,0,.02547.90566.63021.63021,0,0,0,.89989-.03L31.29035,8.12939a2.47683,2.47683,0,0,0-.05552-3.38876L29.18218,2.66824a2.19273,2.19273,0,0,0-1.668-.6665,2.28973,2.28973,0,0,0-1.6474.73488L7.1641,22.57779a.53965.53965,0,0,0-.13574.22616L3.03588,32.09524a.64483.64483,0,0,0,.08065.581.66108.66108,0,0,0,.54325.25624H15.25905a2.34623,2.34623,0,0,0,1.54925-.34137A3.64491,3.64491,0,0,0,18.61216,32.864Z" fill="var(--iconPurple, #864ccc)"></path><path d="M19.80927,26.80721c.60714.68136-1.93255,3.89-2.613,3.89C17.65655,28.35873,19.20213,26.12584,19.80927,26.80721Z" fill="var(--iconPurple, #864ccc)"></path><path d="M8.183,23.35524,26.792,3.61765a1.04525,1.04525,0,0,1,.747-.33385.91559.91559,0,0,1,.74734.29548l2.04891,2.06735A1.17805,1.17805,0,0,1,30.361,7.25382L12.01465,26.71012Z" fill="var(--iconPurple, #864ccc)" opacity="0.1" style="isolation: isolate;"></path></svg>