<svg xmlns="http://www.w3.org/2000/svg" class="yxBNXG_spectrum-Icon yxBNXG_spectrum-Icon--sizeL" focusable="false" aria-hidden="true" role="img"><path d="M7,8V19.56a8.261,8.261,0,0,1,1-.06A9,9,0,0,1,17,28H35V8Z" fill="var(--iconMegenta, #ce2783)" opacity="0.1"></path><path d="M27.74646,28.62041,17.8466,18.423a1.48978,1.48978,0,0,0-2.101,0l-2.617,2.66494-.88351-.52353,2.80017-2.85458a2.50209,2.50209,0,0,1,3.49184,0l5.17857,5.33371,1.97278-2.00893a2.50209,2.50209,0,0,1,3.49184,0L35,26.96094l.38623.34558-.46469,1.0004-6.44161-6.55915a1.45122,1.45122,0,0,0-2.09116,0L24.416,23.7567l4.419,4.55022Q27.8693,28.74694,27.74646,28.62041Z" fill="var(--iconMegenta, #ce2783)"></path><path d="M31.29971,3.00031H2.70029a.67638.67638,0,0,0-.50113.20087.6906.6906,0,0,0-.19886.50619V22a8.26362,8.26362,0,0,1,1-.798V4.01039H30.99972V5.02048h1V3.70737a.6906.6906,0,0,0-.19886-.50619A.67638.67638,0,0,0,31.29971,3.00031Z" fill="var(--iconMegenta, #ce2783)" fill-rule="evenodd"></path><path d="M35.29971,7.0003H6.70029a.68.68,0,0,0-.7.7V19.7c.33-.07.66-.13,1-.17V8.00028H34.99972V27.99972H17.00008v1H35.29971a.68.68,0,0,0,.7-.7V7.70028a.68.68,0,0,0-.7-.7Z" fill="var(--iconMegenta, #ce2783)"></path><path d="M29.49505,16.47478a2.99991,2.99991,0,0,1,.04174-5.99963,3.07726,3.07726,0,0,1,2.13195.89972,2.9995,2.9995,0,0,1-2.17369,5.09991Zm.005.0002v-.5l.005-.5a1.99968,1.99968,0,0,0,1.454-3.3957,2.07023,2.07023,0,0,0-1.429-.6042,1.99994,1.99994,0,1,0,0,3.99987v1Z" fill="var(--iconMegenta, #ce2783)"></path><path d="M8.00507,29.99773H4.49655a.484.484,0,0,1-.484-.484V27.48744a.484.484,0,0,1,.484-.484H8.00507V24.66209a.21524.21524,0,0,1,.22926-.191.219.219,0,0,1,.15283.05094l4.1674,3.86177a.2.2,0,0,1,0,.2802l-4.1674,3.83377a.25472.25472,0,0,1-.31841,0,.20762.20762,0,0,1-.06368-.14009ZM8,21a7.5,7.5,0,1,0,7.5,7.5A7.5,7.5,0,0,0,8,21Z" fill="var(--iconMegenta, #ce2783)"></path></svg>