<svg xmlns="http://www.w3.org/2000/svg" width="18" height="18" viewBox="0 0 18 18">
  <g>
    <path d="M9,17.25A8.25,8.25,0,1,1,17.25,9,8.25,8.25,0,0,1,9,17.25Zm0-15A6.75,6.75,0,1,0,15.75,9,6.75,6.75,0,0,0,9,2.25Z" fill="var(--iconFill, #464646)"/>
    <path d="M8.87012,4.61768a3.24042,3.24042,0,0,1,1.05664.16113,2.14835,2.14835,0,0,1,.78418.45508,1.98612,1.98612,0,0,1,.48242.69336,2.1701,2.1701,0,0,1,.168.86035,2.25356,2.25356,0,0,1-.24414,1.09277,3.57622,3.57622,0,0,1-.60938.81152q-.40577.40576-.71386.749a1.01178,1.01178,0,0,0-.30762.665,1.6526,1.6526,0,0,0,.22363.76953c.05566.07519.03711.1123-.05566.1123H8.47852a.38785.38785,0,0,1-.07813-.00683.25926.25926,0,0,1-.08984-.04883,1.328,1.328,0,0,1-.2666-.50391,1.88227,1.88227,0,0,1-.06934-.47656,1.39769,1.39769,0,0,1,.28711-.86816,10.78326,10.78326,0,0,1,.748-.86719,5.28929,5.28929,0,0,0,.51171-.60938A1.02839,1.02839,0,0,0,9.71,7.01221.82885.82885,0,0,0,9.45117,6.396a1.2568,1.2568,0,0,0-.88867-.252,2.90469,2.90469,0,0,0-.91016.13282,3.81052,3.81052,0,0,0-.74218.3291.06031.06031,0,0,1-.07715,0,.086.086,0,0,1-.03516-.07032V5.23389c0-.07422.01856-.1211.05567-.13965A3.985,3.985,0,0,1,8.87012,4.61768Zm.126,9.4082a.952.952,0,0,1-.67187-.24512,1.02754,1.02754,0,0,1,0-1.3789.93571.93571,0,0,1,.67187-.252.90771.90771,0,0,1,.67871.26563.9244.9244,0,0,1,.25879.67285.9461.9461,0,0,1-.24414.68555.92391.92391,0,0,1-.69339.252Z" fill="var(--iconFill, #464646)"/>
  </g>
</svg>