<svg xmlns="http://www.w3.org/2000/svg" class="yxBNXG_spectrum-Icon yxBNXG_spectrum-Icon--sizeL" focusable="false" aria-hidden="true" role="img"><path d="M25.67948,6.75129l2.75037-2.99922a.34016.34016,0,0,1,.37006-.07A.33.33,0,0,1,29,3.992V11.67a.3402.3402,0,0,1-.34011.33h-7.451a.33022.33022,0,0,1-.31-.2.31981.31981,0,0,1,.07-.3699L24.19927,8.2809a9.16193,9.16193,0,0,0-7.371-4.2789,8.68544,8.68544,0,0,0-8.79121,7.40808A.71014.71014,0,0,1,7.357,12h-.6801a.69051.69051,0,0,1-.52007-.24.67962.67962,0,0,1-.15-.52986,10.80267,10.80267,0,0,1,19.6427-4.46884Z" fill="var(--iconFuchsia, #b130bd)" fill-rule="evenodd"></path><path d="M10.29,19.3,7.8,16.7A3.12,3.12,0,0,0,6,16H3a3,3,0,0,0-3,3v9a3,3,0,0,0,3,3H8a3,3,0,0,0,3-3V21.1A2.87,2.87,0,0,0,10.29,19.3ZM10,28a2,2,0,0,1-2,2H3a2,2,0,0,1-2-2V19a2,2,0,0,1,2-2H6v2.5A1.54,1.54,0,0,0,7.5,21H10ZM7,17.42,9.49,20h-2a.47.47,0,0,1-.5-.5Z" fill="var(--iconFuchsia, #b130bd)"></path><path d="M10,28a2,2,0,0,1-2,2H3a2,2,0,0,1-2-2V19a2,2,0,0,1,2-2H6v2.5A1.54,1.54,0,0,0,7.5,21H10Zm12,0a2,2,0,0,1-2,2H15a2,2,0,0,1-2-2V19a2,2,0,0,1,2-2h3v2.5A1.54,1.54,0,0,0,19.5,21H22Z" fill="var(--iconFuchsia, #b130bd)" opacity="0.1" style="isolation: isolate;"></path><path d="M7,17l3,3.001L7.4,20c-.24,0-.4-.23-.4-.58Z" fill="var(--iconFuchsia, #b130bd)" opacity="0.1" style="isolation: isolate;"></path><path d="M19,17l3,3.001L19.4,20c-.24,0-.4-.23-.4-.58Z" fill="var(--iconFuchsia, #b130bd)" opacity="0.1" style="isolation: isolate;"></path><path d="M22.29,19.3,19.8,16.7A3.12,3.12,0,0,0,18,16H15a3,3,0,0,0-3,3v9a3,3,0,0,0,3,3h5a3,3,0,0,0,3-3V21.1A2.87,2.87,0,0,0,22.29,19.3ZM22,28a2,2,0,0,1-2,2H15a2,2,0,0,1-2-2V19a2,2,0,0,1,2-2h3v2.5A1.54,1.54,0,0,0,19.5,21H22ZM19,17.42,21.49,20h-2a.47.47,0,0,1-.5-.5ZM35,29a2,2,0,0,1-2,2H26a2,2,0,0,1-2-2V18a2,2,0,0,1,2-2h4v3.5A1.54,1.54,0,0,0,31.5,21H35ZM31,16l4,4-3.5-.07a.47.47,0,0,1-.5-.5Z" fill="var(--iconFuchsia, #b130bd)"></path></svg>