<svg xmlns="http://www.w3.org/2000/svg" class="yxBNXG_spectrum-Icon yxBNXG_spectrum-Icon--sizeL" focusable="false" aria-hidden="true" role="img"><path d="M24.74463,0h1.559A6.82723,6.82723,0,0,1,31.2624,2.17029,7.62652,7.62652,0,0,1,33.27406,7.411V9.06121h2.33352a.38326.38326,0,0,1,.28163.12.43868.43868,0,0,1,.11065.29.38874.38874,0,0,1-.09053.26l-3.5204,4.14055a.37355.37355,0,0,1-.56327,0L28.30526,9.7313a.38868.38868,0,0,1-.09052-.26.43867.43867,0,0,1,.11064-.29.36307.36307,0,0,1,.28163-.12h2.40393V7.411a4.81237,4.81237,0,0,0-4.6771-4.94066h-1.559a.802.802,0,0,1-.77449-.82011V.82011A.80181.80181,0,0,1,24.74463,0Z" fill="var(--iconCharteuse, #7cc33f)" fill-rule="evenodd"></path><path d="M25.29,8.3,19.8,2.7A3.12,3.12,0,0,0,18,2H3A3,3,0,0,0,0,5V31a3,3,0,0,0,3,3H23a3,3,0,0,0,3-3V10.1A2.87,2.87,0,0,0,25.29,8.3ZM25,31a2,2,0,0,1-2,2H3a2,2,0,0,1-2-2V5A2,2,0,0,1,3,3H18V8.5A1.54,1.54,0,0,0,19.5,10H25ZM19,3.42,24.49,9h-5a.47.47,0,0,1-.5-.5Z" fill="var(--iconCharteuse, #7cc33f)"></path><path d="M18.38,3a1.5,1.5,0,0,1,1.06.44l5.12,5.1A1.5,1.5,0,0,1,25,9.6V31a2,2,0,0,1-2,2H3a2,2,0,0,1-2-2V5A2,2,0,0,1,3,3Z" fill="var(--iconCharteuse, #7cc33f)" opacity="0.1" style="isolation: isolate;"></path></svg>